<svg width="39" height="43" viewBox="0 0 39 43" fill="none" xmlns="http://www.w3.org/2000/svg">
<path d="M37.271 10.2571L20.2943 0.455756C19.7879 0.163593 19.1639 0.163593 18.6575 0.455756L1.68086 10.2571C1.17441 10.5498 0.862427 11.0897 0.862427 11.6745V31.2773C0.862427 31.8621 1.17441 32.4025 1.68086 32.6947L18.6575 42.4961C19.1639 42.7887 19.7879 42.7887 20.2943 42.4961L37.271 32.6947C37.7774 32.4021 38.0894 31.8621 38.0894 31.2773V11.6745C38.0894 11.0897 37.7774 10.5493 37.271 10.2571ZM16.1191 32.0958C10.2631 32.0958 5.49928 27.3319 5.49928 21.4759C5.49928 15.6199 10.2631 10.8561 16.1191 10.8561C18.6462 10.8561 21.0958 11.7614 23.0168 13.4044L20.2033 16.6942C19.0653 15.7214 17.6144 15.1852 16.1186 15.1852C12.6495 15.1852 9.82745 18.0073 9.82745 21.4764C9.82745 24.9451 12.6495 27.7671 16.1186 27.7671C17.6148 27.7671 19.0653 27.2314 20.2033 26.2582L23.0168 29.5479C21.0963 31.1909 18.6462 32.0958 16.1191 32.0958ZM26.0328 22.401H24.4139V24.02H22.5637V22.401H20.9448V20.5508H22.5637V18.9319H24.4139V20.5508H26.0328V22.401ZM33.4525 22.401H31.8336V24.02H29.9834V22.401H28.3645V20.5508H29.9834V18.9319H31.8336V20.5508H33.4525V22.401Z" fill="#3B82F6"/>
</svg>
