<svg width="43" height="43" viewBox="0 0 43 43" fill="none" xmlns="http://www.w3.org/2000/svg">
<g clip-path="url(#clip0_231_71)">
<path d="M21.5 43.0015C33.3741 43.0015 43 33.3753 43 21.5008C43 9.62621 33.3741 0 21.5 0C9.62588 0 0 9.62621 0 21.5008C0 33.3753 9.62588 43.0015 21.5 43.0015Z" fill="black"/>
<path d="M19.0943 9.74227V8.47876H15.7265V12.5791H19.0943V11.3156L17.0848 11.3065V9.76645L19.0943 9.74227Z" fill="white"/>
<path d="M19.9649 8.47272V11.042H21.799C21.799 11.042 22.0112 11.0556 22.0112 11.3307C22.0112 11.3307 22.0672 11.6209 21.8565 11.633H19.9649V12.57H23.1264V10.0007L21.4573 9.99013C21.4191 9.99897 21.3795 9.99824 21.3417 9.988C21.3039 9.97776 21.269 9.95832 21.2401 9.93132C21.2112 9.90433 21.1891 9.87057 21.1756 9.83292C21.1621 9.79528 21.1576 9.75485 21.1626 9.71506C21.1626 9.71506 21.1096 9.35234 21.3379 9.36594L23.1323 9.35687V8.47272H19.9649Z" fill="white"/>
<path d="M24.1577 8.47272V11.042H25.9933C25.9933 11.042 26.2039 11.0556 26.2039 11.3307C26.2039 11.3307 26.2614 11.6209 26.0493 11.633H24.1577V12.57H27.3192V10.0007L25.6515 9.99013C25.6129 10.0001 25.5725 10.0002 25.5339 9.99044C25.4952 9.98072 25.4595 9.96148 25.4297 9.93438C25.4 9.90728 25.3771 9.87313 25.3631 9.83492C25.3491 9.7967 25.3445 9.75556 25.3495 9.71506C25.3495 9.71506 25.2964 9.35234 25.5263 9.36594L27.3192 9.35687V8.47272H24.1577Z" fill="white"/>
<path d="M11.7724 14.1404L13.4607 33.8305L20.9814 36.4588L29.3389 34.0225L31.3395 14.1404H11.7724Z" fill="white"/>
<path d="M15.7265 18.4856H27.3192L26.2732 30.2486L21.7387 31.6602L16.8049 30.4164L16.6075 26.7876L18.6714 26.8208L19 28.3669L21.5221 29.3418L24.3787 28.4667L24.4228 25.5467L16.2863 25.4258V23.1149L24.6497 23.059V20.9053L15.9342 20.8766L15.7265 18.4856Z" fill="#231F20"/>
</g>
<defs>
<clipPath id="clip0_231_71">
<rect width="43" height="43" fill="white"/>
</clipPath>
</defs>
</svg>
