<svg width="43" height="43" viewBox="0 0 43 43" fill="none" xmlns="http://www.w3.org/2000/svg">
<g clip-path="url(#clip0_231_84)">
<path d="M21.5012 43.0024C33.376 43.0024 43.0024 33.376 43.0024 21.5012C43.0024 9.62642 33.376 0 21.5012 0C9.62642 0 0 9.62642 0 21.5012C0 33.376 9.62642 43.0024 21.5012 43.0024Z" fill="#231F20"/>
<path d="M21.5012 11.5197C23.2001 11.5197 24.5774 10.1425 24.5774 8.44356C24.5774 6.74466 23.2001 5.36743 21.5012 5.36743C19.8023 5.36743 18.4251 6.74466 18.4251 8.44356C18.4251 10.1425 19.8023 11.5197 21.5012 11.5197Z" fill="white"/>
<path d="M27.39 15.8146L24.1988 11.6392C24.0655 11.4648 23.8162 11.4315 23.6418 11.5648L23.6399 11.5662C23.4656 11.6995 23.4323 11.9488 23.5655 12.1232L26.7567 16.2986C26.8899 16.4729 27.1393 16.5062 27.3136 16.373L27.3156 16.3715C27.4899 16.2383 27.5232 15.9889 27.39 15.8146Z" fill="white"/>
<path d="M28.4627 20.2605C29.7026 20.2605 30.7077 19.2554 30.7077 18.0156C30.7077 16.7757 29.7026 15.7706 28.4627 15.7706C27.2229 15.7706 26.2178 16.7757 26.2178 18.0156C26.2178 19.2554 27.2229 20.2605 28.4627 20.2605Z" fill="white"/>
<path d="M21.6816 18.0181V12.6409C21.6816 12.4552 21.531 12.3046 21.3452 12.3046H21.3428C21.157 12.3046 21.0064 12.4552 21.0064 12.6409V18.0181C21.0064 18.2038 21.157 18.3545 21.3428 18.3545H21.3452C21.531 18.3545 21.6816 18.2038 21.6816 18.0181Z" fill="white"/>
<path d="M21.2428 20.2605C22.4827 20.2605 23.4878 19.2554 23.4878 18.0156C23.4878 16.7757 22.4827 15.7706 21.2428 15.7706C20.003 15.7706 18.9979 16.7757 18.9979 18.0156C18.9979 19.2554 20.003 20.2605 21.2428 20.2605Z" fill="white"/>
<path d="M15.6484 16.2745L19.044 12.1052C19.1613 11.9611 19.1396 11.7493 18.9956 11.6319L18.9937 11.6304C18.8497 11.5131 18.6378 11.5348 18.5205 11.6788L15.1249 15.8482C15.0076 15.9922 15.0292 16.2041 15.1733 16.3214L15.1752 16.3229C15.3192 16.4402 15.5311 16.4186 15.6484 16.2745Z" fill="white"/>
<path d="M14.2228 20.2605C15.4627 20.2605 16.4678 19.2554 16.4678 18.0156C16.4678 16.7757 15.4627 15.7706 14.2228 15.7706C12.983 15.7706 11.9779 16.7757 11.9779 18.0156C11.9779 19.2554 12.983 20.2605 14.2228 20.2605Z" fill="white"/>
<path d="M24.5331 26.1116L27.026 21.3472C27.1121 21.1826 27.0485 20.9794 26.8839 20.8932L26.8817 20.8921C26.7171 20.806 26.5139 20.8696 26.4277 21.0342L23.9349 25.7986C23.8487 25.9632 23.9124 26.1664 24.077 26.2526L24.0791 26.2537C24.2437 26.3398 24.447 26.2762 24.5331 26.1116Z" fill="white"/>
<path d="M24.2337 27.6243C25.0575 27.6243 25.7254 26.9564 25.7254 26.1325C25.7254 25.3086 25.0575 24.6407 24.2337 24.6407C23.4098 24.6407 22.7419 25.3086 22.7419 26.1325C22.7419 26.9564 23.4098 27.6243 24.2337 27.6243Z" fill="white"/>
<path d="M30.8195 26.9216L29.4632 21.7183C29.4163 21.5386 29.2326 21.4308 29.0528 21.4777L29.0505 21.4783C28.8707 21.5251 28.763 21.7089 28.8098 21.8886L30.1661 27.0919C30.213 27.2717 30.3967 27.3794 30.5765 27.3325L30.5788 27.3319C30.7586 27.2851 30.8664 27.1014 30.8195 26.9216Z" fill="white"/>
<path d="M30.381 27.6243C31.2049 27.6243 31.8728 26.9564 31.8728 26.1325C31.8728 25.3086 31.2049 24.6407 30.381 24.6407C29.5572 24.6407 28.8893 25.3086 28.8893 26.1325C28.8893 26.9564 29.5572 27.6243 30.381 27.6243Z" fill="white"/>
<path d="M19.626 25.5298L25.6158 20.4842C25.7579 20.3645 25.776 20.1523 25.6563 20.0102L25.6532 20.0065C25.5335 19.8644 25.3213 19.8462 25.1792 19.9659L19.1895 25.0115C19.0474 25.1312 19.0292 25.3434 19.1489 25.4855L19.1521 25.4892C19.2718 25.6313 19.484 25.6495 19.626 25.5298Z" fill="white"/>
<path d="M18.2203 27.6243C19.0442 27.6243 19.7121 26.9564 19.7121 26.1325C19.7121 25.3086 19.0442 24.6407 18.2203 24.6407C17.3965 24.6407 16.7286 25.3086 16.7286 26.1325C16.7286 26.9564 17.3965 27.6243 18.2203 27.6243Z" fill="white"/>
<path d="M12.3078 27.0835L13.6521 21.8677C13.6986 21.6875 13.5901 21.5037 13.4099 21.4573L13.4076 21.4567C13.2274 21.4102 13.0436 21.5187 12.9972 21.6989L11.6529 26.9147C11.6064 27.0949 11.7149 27.2786 11.8951 27.3251L11.8974 27.3257C12.0777 27.3721 12.2614 27.2637 12.3078 27.0835Z" fill="white"/>
<path d="M11.9779 27.6243C12.8018 27.6243 13.4696 26.9564 13.4696 26.1325C13.4696 25.3086 12.8018 24.6407 11.9779 24.6407C11.154 24.6407 10.4861 25.3086 10.4861 26.1325C10.4861 26.9564 11.154 27.6243 11.9779 27.6243Z" fill="white"/>
<path d="M13.572 30.264V35.7825H16.2387C16.2387 35.7825 18.135 35.4486 18.2203 33.7131C18.3057 31.9776 18.2203 31.4047 18.2203 31.4047C17.9896 31.0105 17.6486 30.6925 17.2393 30.4898C16.83 30.2871 16.3703 30.2086 15.9169 30.264H13.572Z" fill="white"/>
<path d="M14.9955 31.3341V34.6418C14.9955 34.6418 16.5482 34.5467 16.7237 33.5474V32.1897C16.6609 31.9873 16.5494 31.8035 16.3989 31.6543C16.2485 31.5052 16.0637 31.3952 15.8608 31.3341H14.9955Z" fill="#231F20"/>
<path d="M22.5518 31.6997L23.1149 30.6442C23.1149 30.6442 22.8345 29.9398 21.45 29.8935C20.0655 29.8472 19.383 30.5735 19.383 30.5735C19.383 30.5735 18.9857 30.7856 19.1027 31.9117C19.2197 33.0379 20.3215 33.4596 20.3215 33.4596L21.2575 33.8349C21.3271 33.8767 21.3848 33.9358 21.4248 34.0065C21.4649 34.0772 21.4859 34.1571 21.4859 34.2383C21.4859 34.3196 21.4649 34.3994 21.4248 34.4701C21.3848 34.5408 21.3271 34.5999 21.2575 34.6417C20.7212 35.0537 19.3367 34.1542 19.3367 34.1542L19.0808 34.1299V35.2804C19.0808 35.2804 18.937 35.7045 19.9949 35.7679C19.9949 35.7679 21.6597 35.7459 21.7304 35.7679C22.0689 35.7334 22.3842 35.58 22.6202 35.335C22.8563 35.09 22.9979 34.7692 23.0198 34.4297C23.1612 33.2329 22.6225 32.9672 22.6225 32.9672C22.1688 32.568 21.6577 32.2393 21.1064 31.9922C20.3751 31.7119 20.9089 31.4291 20.9089 31.4291C21.1956 31.3164 21.5144 31.3164 21.801 31.4291L22.5518 31.6997Z" fill="white"/>
<path d="M25.0697 30.0203H27.1513L28.9965 35.7825H27.3025L26.9149 34.6028L25.3549 34.5857L24.9186 35.7825H23.2221L25.0697 30.0203Z" fill="white"/>
<path d="M26.0252 31.161L25.4817 33.4279H26.7808L26.2105 31.161H26.0252Z" fill="#231F20"/>
</g>
<defs>
<clipPath id="clip0_231_84">
<rect width="43" height="43" fill="white"/>
</clipPath>
</defs>
</svg>
