<svg width="500" height="386" viewBox="0 0 500 386" fill="none" xmlns="http://www.w3.org/2000/svg">
<g clip-path="url(#clip0_55_51)">
<path d="M461.342 186.39H56.0931C50.6612 186.39 46.242 181.178 46.242 174.771V11.6181C46.242 5.21184 50.6612 0 56.0931 0H461.342C466.774 0 471.193 5.21184 471.193 11.6181V174.771C471.193 181.178 466.774 186.39 461.342 186.39ZM56.0931 1.38513C51.3089 1.38513 47.4165 5.97576 47.4165 11.6181V174.771C47.4165 180.414 51.3089 185.005 56.0931 185.005H461.342C466.126 185.005 470.019 180.414 470.019 174.771V11.6181C470.019 5.97576 466.126 1.38513 461.342 1.38513H56.0931Z" fill="#3F3D56"/>
<path d="M500 381.298H0.241455V382.463H500V381.298Z" fill="#E6E6E6"/>
<path d="M500 321.737H0.241455V322.902H500V321.737Z" fill="#E6E6E6"/>
<path d="M227.995 192.39C228.354 197.709 230.972 201.802 233.842 201.532C236.712 201.262 238.747 196.732 238.388 191.411C238.269 189.283 237.72 187.22 236.786 185.394L235.024 162.881L226.084 164.081L228.77 186.148C228.093 188.126 227.827 190.266 227.995 192.39Z" fill="#FFB6B6"/>
<path d="M217.315 87.3557C217.315 87.3557 225.673 82.138 229.91 89.9352C234.148 97.7325 237.073 182.061 237.073 182.061L225.327 183.54L223.101 124.116L217.315 87.3557Z" fill="#E6E6E6"/>
<path d="M199.969 317.337L206.773 317.336L210.01 286.382L199.967 286.383L199.969 317.337Z" fill="#FFB6B6"/>
<path d="M223.282 317.155C223.494 317.576 223.606 318.934 223.606 319.424C223.606 320.928 222.572 322.147 221.296 322.147H200.223C199.353 322.147 198.648 321.315 198.648 320.289V319.254C198.648 319.254 197.605 316.145 199.752 312.312C199.752 312.312 202.419 315.313 206.405 310.612L207.58 308.101L216.089 315.44L220.805 316.124C221.836 316.274 222.751 316.101 223.282 317.155Z" fill="#2F2E41"/>
<path d="M239.346 316.009L245.938 314.022L242.579 283.086L232.848 286.018L239.346 316.009Z" fill="#FFB6B6"/>
<path d="M261.895 309.027C262.189 309.373 262.582 310.656 262.685 311.131C263.001 312.588 262.255 314.071 261.019 314.444L240.602 320.595C239.759 320.849 238.901 320.249 238.685 319.254L238.468 318.252C238.468 318.252 236.806 315.543 238.081 311.203C238.081 311.203 241.295 313.332 244.17 307.614L244.782 304.838L254.566 309.465L259.279 308.751C260.31 308.595 261.16 308.161 261.895 309.027Z" fill="#2F2E41"/>
<path d="M194.339 80.7015L194.017 77.9402L197.851 66.8952L208.387 65.5146L210.662 81.327L194.339 80.7015Z" fill="#FFB6B6"/>
<path opacity="0.1" d="M194.339 80.7015L194.017 77.9402L197.851 66.8952L208.387 65.5146L210.662 81.327L194.339 80.7015Z" fill="black"/>
<path d="M182.047 158.707L177.365 173.894L180.877 182.178L198.437 302.292H210.111L207.802 195.984L234.727 302.292H246.281L236.99 230.5L230.044 164.23L225.832 161.16L205.461 147.662L182.047 158.707Z" fill="#2F2E41"/>
<path d="M211.899 169.062L204.875 170.442L195.51 144.21H216.582L211.899 169.062Z" fill="#E6E6E6"/>
<path d="M225.947 162.159L211.899 169.062L207.216 156.636L204.875 170.442L180.291 161.109L183.803 144.21L180.291 88.9853L192.689 79.238L194.339 77.9402L209.558 79.3209L210.892 80.1769L220.094 86.224L222.435 131.785L225.947 162.159Z" fill="#2F2E41"/>
<path d="M210.892 80.1769L204.29 113.146L192.689 79.238L194.339 77.9402L209.558 79.3209L210.892 80.1769Z" fill="#E6E6E6"/>
<path d="M199.607 77.9402L197.266 82.6957L199.607 84.2809L198.437 113.232L203.119 120.74L207.802 109.644L204.29 84.2809L205.461 77.9402H199.607Z" fill="#2F2E41"/>
<path d="M203.119 75.179C209.261 75.179 214.24 69.3068 214.24 62.063C214.24 54.8192 209.261 48.947 203.119 48.947C196.977 48.947 191.998 54.8192 191.998 62.063C191.998 69.3068 196.977 75.179 203.119 75.179Z" fill="#FFB6B6"/>
<path d="M196.012 63.2135L198.415 64.4503L199.464 57.0295C199.464 57.0295 203.659 54.5558 206.805 55.7926C209.951 57.0295 215.194 55.7926 215.194 55.7926C215.194 55.7926 215.194 43.4245 207.853 43.4245C200.512 43.4245 193.171 44.6613 193.171 48.3718C193.171 52.0822 190.025 55.7926 190.025 55.7926C190.025 55.7926 185.83 63.2135 190.025 68.1608C194.22 73.108 196.318 73.108 196.318 73.108L196.012 63.2135Z" fill="#2F2E41"/>
<path d="M174.433 192.002C174.311 197.336 176.546 201.733 179.424 201.824C182.302 201.915 184.733 197.665 184.855 192.33C184.928 190.199 184.567 188.079 183.803 186.146L184.078 163.539L175.08 163.613L175.765 185.892C174.913 187.774 174.457 189.869 174.433 192.002Z" fill="#FFB6B6"/>
<path d="M185.565 86.1981C185.565 86.1981 177.956 83.4369 174.444 91.7206C170.932 100.004 175.615 184.223 175.615 184.223H187.427L184.292 124.856L185.565 86.1981Z" fill="#E6E6E6"/>
<path d="M477.464 243.097L449.087 232.852C448.46 232.625 447.801 232.543 447.147 232.608L303.332 247.043C301.281 247.249 300.766 250.511 302.616 251.574L307.223 254.221H307.1V380.927H311.441V256.644L325.878 264.94C326.983 265.574 328.216 265.833 329.438 265.688L330.974 265.505V380.927H335.315V264.988L446.55 251.736V380.927H450.89V251.219L469.339 249.022V380.927H473.68V248.504L477.046 248.104C479.408 247.822 479.735 243.916 477.464 243.097Z" fill="#3F3D56"/>
<path d="M345.082 246.542C347.795 246.542 387.948 240.782 387.948 240.782L393.917 250.381L352.136 259.98L345.082 246.542Z" fill="white"/>
<path d="M389.15 376.006L382.174 375.991L378.902 344.25L389.198 344.272L389.15 376.006Z" fill="#A0616A"/>
<path d="M365.25 375.771C365.032 376.202 364.916 377.594 364.915 378.096C364.913 379.638 365.971 380.891 367.278 380.893L388.882 380.937C389.774 380.939 390.499 380.087 390.5 379.035L390.502 377.975C390.502 377.975 391.575 374.788 389.381 370.854C389.381 370.854 386.642 373.926 382.562 369.098L381.361 366.521L372.627 374.027L367.791 374.719C366.733 374.871 365.796 374.691 365.25 375.771Z" fill="#2F2E41"/>
<path d="M426.591 361.246L421.087 366.142L402.455 343.435L410.578 336.209L426.591 361.246Z" fill="#A0616A"/>
<path d="M407.641 377.875C407.687 378.368 408.3 379.547 408.553 379.943C409.331 381.159 410.798 381.402 411.83 380.484L428.874 365.32C429.578 364.694 429.718 363.513 429.187 362.683L428.652 361.846C428.652 361.846 427.886 358.581 424.167 357.025C424.167 357.025 423.562 361.372 417.907 360.438L415.657 359.253L412.572 371.311L409.111 375.258C408.354 376.122 407.525 376.64 407.641 377.875Z" fill="#2F2E41"/>
<path d="M412.012 197.201C412.012 204.788 406.797 210.939 400.364 210.939C393.931 210.939 388.716 204.788 388.716 197.201C388.716 189.614 393.931 183.464 400.364 183.464C406.797 183.464 412.012 189.614 412.012 197.201Z" fill="#A0616A"/>
<path d="M410.915 276.408C410.915 276.408 368.028 273.545 365.6 279.271C363.172 284.997 378.724 363.649 378.724 363.649L392.598 360.219L385.83 305.038C385.83 305.038 421.618 316.216 426.473 302.855C431.328 289.495 429.931 284.52 429.931 284.52L410.915 276.408Z" fill="#2F2E41"/>
<path d="M421.903 266.797C421.903 266.797 379.901 277.416 378.844 283.695C377.788 289.974 410.427 360.973 410.427 360.973L423.038 353.337L404.133 302.233C404.133 302.233 441.154 301.847 442.839 287.448C444.524 273.048 442.061 268.687 442.061 268.687L421.903 266.797Z" fill="#2F2E41"/>
<path d="M426.694 212.945H406.515L392.708 239.666C392.708 239.666 389.471 256.935 392.708 258.798C395.945 260.662 395.945 280.703 395.945 280.703L429.931 284.52C429.931 284.52 434.786 224.397 433.167 218.671C431.549 212.945 426.694 212.945 426.694 212.945Z" fill="#6C63FF"/>
<path d="M394.731 230.6L392.708 258.798L369.954 247.409L364.523 244.188C363.46 242.552 362.079 241.241 360.498 240.363C356.565 238.102 352.39 238.662 351.17 241.613C349.951 244.564 352.149 248.788 356.081 251.047C357.642 251.976 359.369 252.45 361.117 252.43L377.007 263.073L377.026 263.031L377.096 263.18L402.014 275.454L407.747 238.437L394.731 230.6Z" fill="#A0616A"/>
<path d="M392.303 199.107C392.303 199.107 380.165 201.016 385.02 188.61C385.02 188.61 384.28 181.884 387.887 181.43C391.494 180.975 396.349 173.34 396.349 173.34C396.349 173.34 407.48 166.66 413.243 173.34C419.006 180.021 435.999 219.148 435.999 219.148L424.671 233.463C424.671 233.463 417.86 212.348 409.937 214.794C402.013 217.24 394.731 224.532 394.731 224.532C394.731 224.532 386.69 219.787 390.306 215.65C393.922 211.514 392.303 199.107 392.303 199.107Z" fill="#2F2E41"/>
<path d="M408.487 220.103C408.487 220.103 402.823 211.514 398.777 218.194C394.731 224.874 391.494 233.463 391.494 233.463L407.678 240.144L408.487 220.103Z" fill="#6C63FF"/>
<path d="M469.934 379.027L451.132 308.545L451.134 308.544H451.178L451.102 308.429L451.1 308.427L449.761 303.406L449.762 303.406C451.802 301.332 453.191 298.37 453.468 294.959L444.873 239.208C445.464 231.887 440.706 225.488 434.471 225.225L415.078 225.168C409.565 224.937 404.79 229.635 403.987 236.072L403.559 239.489L397.617 287.158C397.4 288.873 397.487 290.562 397.829 292.143L393.553 292.802L392.256 293.007L387.129 293.794L387.112 293.8L386.472 293.896H385.778V314.374H385.821V379.826C385.821 380.249 386.114 380.594 386.472 380.594C386.836 380.594 387.129 380.249 387.129 379.826V314.374H394.736L402.327 379.749C402.376 380.133 402.653 380.415 402.978 380.415C403.005 380.415 403.038 380.415 403.065 380.409C403.423 380.351 403.673 379.961 403.624 379.538L396.06 314.374H432.561C436.185 314.374 439.544 313.018 442.278 310.695L456.751 379.63C456.826 379.978 457.092 380.21 457.383 380.21C457.437 380.21 457.491 380.203 457.545 380.187C457.895 380.082 458.106 379.662 458.017 379.249L443.405 309.648C443.6 309.457 443.794 309.254 443.978 309.044L449.787 308.641L468.688 379.49C468.775 379.819 469.033 380.03 469.311 380.03C469.376 380.03 469.442 380.018 469.507 379.994C469.851 379.866 470.043 379.433 469.934 379.027ZM448.519 304.5C448.568 304.468 448.611 304.43 448.655 304.398L448.795 304.921L448.519 304.5Z" fill="#E6E6E6"/>
<path d="M100.991 259.557L113.645 250.066L118.79 253.726L100.991 277.846V259.557Z" fill="#FFB6B6"/>
<path d="M83.6863 222.821C83.6863 222.821 75.2812 225.154 79.2365 238.565C83.1919 251.976 96.0467 279.965 100.002 278.216C103.957 276.467 104.452 258.974 104.452 258.974C104.452 258.974 103.957 259.557 101.98 257.224C100.002 254.892 100.002 255.957 100.002 253.384C100.002 250.81 98.3845 248.902 98.3845 248.902L96.5412 244.396C96.5412 244.396 96.5411 223.404 89.1249 222.238C81.7086 221.072 83.6863 222.821 83.6863 222.821Z" fill="#E6E6E6"/>
<path d="M122.955 253.099C126.238 249.227 127.255 244.151 125.228 241.76C123.2 239.369 118.896 240.569 115.614 244.44C112.331 248.311 111.314 253.388 113.341 255.779C115.368 258.17 119.673 256.97 122.955 253.099Z" fill="#FFB6B6"/>
<path d="M50.9482 300.082L59.583 316.938L109.903 313.426L96.5041 293.059L50.9482 300.082Z" fill="#E6E6E6"/>
<path d="M65.9839 378.917C65.6908 378.917 65.4355 378.662 65.3947 378.31L50.3582 248.795C50.3136 248.411 50.5416 248.057 50.8674 248.004C51.193 247.949 51.4934 248.22 51.5382 248.605L66.5746 378.119C66.6193 378.504 66.3913 378.858 66.0655 378.911C66.038 378.915 66.0108 378.917 65.9839 378.917Z" fill="#E6E6E6"/>
<path d="M50.9482 379.082C50.6194 379.082 50.3527 378.767 50.3527 378.379V248.725C50.3527 248.337 50.6194 248.023 50.9482 248.023C51.2771 248.023 51.5437 248.337 51.5437 248.725V378.379C51.5437 378.767 51.2771 379.082 50.9482 379.082Z" fill="#E6E6E6"/>
<path d="M126.428 378.566C126.175 378.566 125.94 378.374 125.86 378.075L90.2788 244.697C90.1801 244.327 90.3544 243.933 90.6682 243.816C90.9818 243.7 91.3163 243.905 91.4149 244.275L126.996 377.653C127.095 378.023 126.921 378.417 126.607 378.534C126.547 378.556 126.487 378.566 126.428 378.566Z" fill="#E6E6E6"/>
<path d="M115.56 378.731C115.294 378.731 115.052 378.519 114.983 378.201L90.2696 260.486C90.1887 260.11 90.3813 259.728 90.7 259.632C91.0197 259.537 91.3429 259.764 91.424 260.14L116.137 377.855C116.218 378.231 116.026 378.613 115.707 378.709C115.658 378.724 115.608 378.731 115.56 378.731Z" fill="#E6E6E6"/>
<path d="M50.9482 250.79L92.1867 250.042L99.7794 301.136H51.5437L50.9482 250.79Z" fill="#E6E6E6"/>
<path d="M114.322 325.92L103.929 347.499L115.996 350.632L121.026 335.284L114.322 325.92Z" fill="#FFB6B6"/>
<path d="M107.662 343.425C107.662 343.425 107.258 339.906 104.884 341.023C102.509 342.139 95.6573 346.29 95.6573 346.29C95.6573 346.29 113.529 380.538 116.921 378.942C120.312 377.347 116.252 367.666 116.252 367.666L117.148 350.553L107.662 343.425Z" fill="#2F2E41"/>
<path d="M68.3593 284.047C68.3593 284.047 64.6511 304.164 76.0228 311.161C87.3944 318.158 126.206 300.957 126.206 300.957L108.407 332.41L120.768 338.275C120.768 338.275 148.949 294.543 146.972 287.545C144.994 280.548 131.645 279.965 131.645 279.965L101.485 281.714L93.5746 278.799L68.3593 284.047Z" fill="#2F2E41"/>
<path d="M98.9463 335.497L82.6078 351.137L92.8808 359.234L102.302 347.097L98.9463 335.497Z" fill="#FFB6B6"/>
<path d="M87.3418 348.944C87.3418 348.944 88.0514 345.493 85.4954 345.514C82.9394 345.535 75.2766 346.461 75.2766 346.461C75.2766 346.461 81.3562 386.03 85.0077 386C88.6591 385.97 87.8643 375.21 87.8643 375.21L93.9788 359.655L87.3418 348.944Z" fill="#2F2E41"/>
<path d="M69.0545 276.77C69.0545 276.77 59.3936 293.916 67.8267 305.314C76.2599 316.712 117.718 317.346 117.718 317.346L91.4349 339.004L101.138 349.772C101.138 349.772 140.881 321.132 141.198 313.765C141.515 306.399 129.261 300.127 129.261 300.127L100.629 288.814L94.1603 282.703L69.0545 276.77Z" fill="#2F2E41"/>
<path d="M93.8724 237.055C93.8724 237.055 84.4785 232.973 80.0287 232.973C79.6035 232.973 79.1833 233.031 78.763 233.136C75.9152 233.848 73.2947 236.734 72.0389 238.309C71.5494 238.927 71.2676 239.341 71.2676 239.341C71.2676 239.341 71.2973 238.938 71.3566 238.233C71.6483 234.524 72.7261 222.355 74.6593 214.565C75.3515 211.783 76.1475 209.562 77.0622 208.483C79.1931 205.964 80.177 202.944 80.6319 200.693C81.0176 198.763 81.0176 197.404 81.0176 197.404L77.4133 195.573L76.7458 190.43C76.6271 191.037 76.0783 192.22 74.2341 194.489C74.0759 194.681 73.9029 194.844 73.7199 194.984C71.06 196.955 65.6362 193.526 62.7142 191.369C63.9305 186.383 66.1356 181.824 70.1403 181.077C79.5343 179.328 79.5343 172.914 85.4673 179.911C85.9568 180.488 86.4512 181.042 86.9456 181.579C88.8442 185.859 89.5364 191.596 89.7836 195.585C89.9616 198.378 89.9171 200.32 89.9171 200.32C89.9171 200.32 92.3892 217.813 96.3445 221.311C100.3 224.81 93.8724 237.055 93.8724 237.055Z" fill="#2F2E41"/>
<path d="M75.579 209.066L68.8985 220.623L83.9841 225.393V209.066H75.579Z" fill="#FFB6B6"/>
<path opacity="0.1" d="M75.579 209.066L68.8985 220.623L83.9841 225.393V209.066H75.579Z" fill="black"/>
<path d="M84.9223 220.197L70.5842 213.2C70.5842 213.2 51.3019 223.113 52.7851 242.355C54.2684 261.597 68.1121 294.834 68.1121 294.834L95.7995 280.84L92.833 243.521L84.9223 220.197Z" fill="#E6E6E6"/>
<path d="M78.7747 214.226C85.7609 214.226 91.4244 207.546 91.4244 199.307C91.4244 191.068 85.7609 184.388 78.7747 184.388C71.7885 184.388 66.125 191.068 66.125 199.307C66.125 207.546 71.7885 214.226 78.7747 214.226Z" fill="#FFB6B6"/>
<path d="M95.8502 193.905C93.3781 196.821 91.4004 199.736 91.4004 199.736L90.4115 195.072C90.4115 195.072 90.1841 195.27 89.7836 195.585C88.2163 196.844 84.0088 200.01 80.6319 200.693C79.1289 200.996 77.794 200.803 76.9238 199.736C75.0796 197.468 74.5308 196.284 74.4122 195.678L73.7447 200.821L70.1404 202.652C70.1404 202.652 70.1404 209.054 74.0957 213.731C74.2886 213.958 74.4765 214.238 74.6594 214.565C76.5481 217.923 77.9028 226.145 78.763 233.136C79.5244 239.352 79.8903 244.588 79.8903 244.588C79.8903 244.588 76.1476 239.061 72.039 238.308C71.8115 238.268 71.5841 238.239 71.3567 238.233C71.2825 238.221 71.2034 238.221 71.1292 238.221C66.6795 238.221 57.2855 242.303 57.2855 242.303C57.2855 242.303 50.8581 230.058 54.8134 226.559C58.7688 223.06 61.2409 205.567 61.2409 205.567C61.2409 205.567 61.0777 198.08 62.7142 191.369C63.9305 186.383 66.1356 181.824 70.1404 181.077C79.5343 179.328 79.5343 172.914 85.4674 179.911C85.9568 180.488 86.4513 181.042 86.9457 181.579C92.4733 187.573 98.1195 191.229 95.8502 193.905Z" fill="#2F2E41"/>
<path d="M40.3696 272.179H35.6718V381.604H40.3696V272.179Z" fill="#3F3D56"/>
<path d="M154.294 272.179H149.596V381.604H154.294V272.179Z" fill="#3F3D56"/>
<path d="M124.345 225.777H93.2209V262.483H124.345V225.777Z" fill="#6C63FF"/>
<path d="M75.2811 264.805L87.9355 255.314L93.0802 258.974L75.2811 283.094V264.805Z" fill="#FFB6B6"/>
<path d="M57.9765 228.069C57.9765 228.069 49.5714 230.402 53.5267 243.813C57.4821 257.224 70.337 285.213 74.2923 283.464C78.2476 281.714 78.7421 264.221 78.7421 264.221C78.7421 264.221 78.2477 264.805 76.27 262.472C74.2923 260.14 74.2923 261.205 74.2923 258.631C74.2923 256.058 72.6747 254.15 72.6747 254.15L70.8314 249.644C70.8314 249.644 70.8314 228.652 63.4151 227.486C55.9988 226.32 57.9765 228.069 57.9765 228.069Z" fill="#E6E6E6"/>
<path d="M97.2455 258.346C100.528 254.475 101.545 249.399 99.5179 247.008C97.4906 244.617 93.1862 245.817 89.9038 249.688C86.6214 253.559 85.6039 258.635 87.6313 261.026C89.6587 263.417 93.9631 262.218 97.2455 258.346Z" fill="#FFB6B6"/>
<path d="M163.689 268.023H21.5781V280.49H163.689V268.023Z" fill="#3F3D56"/>
<path d="M308.073 168.294H287.085C285.422 168.294 284.073 169.884 284.073 171.847V182.055C284.073 184.017 285.422 185.608 287.085 185.608H308.073C309.737 185.608 311.086 184.017 311.086 182.055V171.847C311.086 169.884 309.737 168.294 308.073 168.294Z" fill="#3F3D56"/>
<path d="M352.116 178.502H331.128C329.464 178.502 328.116 180.093 328.116 182.055V182.055C328.116 184.017 329.464 185.608 331.128 185.608H352.116C353.78 185.608 355.129 184.017 355.129 182.055V182.055C355.129 180.093 353.78 178.502 352.116 178.502Z" fill="#6C63FF"/>
</g>
<defs>
<clipPath id="clip0_55_51">
<rect width="499.759" height="386" fill="white" transform="translate(0.241455)"/>
</clipPath>
</defs>
</svg>
