<svg width="43" height="43" viewBox="0 0 43 43" fill="none" xmlns="http://www.w3.org/2000/svg">
<g clip-path="url(#clip0_231_19)">
<path d="M21.5007 43C33.3752 43 43.0014 33.3741 43.0014 21.5C43.0014 9.62588 33.3752 0 21.5007 0C9.6262 0 0 9.62588 0 21.5C0 33.3741 9.6262 43 21.5007 43Z" fill="#231F20"/>
<path d="M13.5952 8.61768V12.513H14.7866V11.2241L15.9576 11.239V12.513H17.2636V8.61768H16.078L16.0505 9.8618H14.8823V8.61768H13.5952Z" fill="white"/>
<path d="M17.8309 8.61768V9.87376H18.7698H18.8801V12.513H20.2499V9.87825L21.3237 9.88572V8.61768H17.8309Z" fill="white"/>
<path d="M21.7416 8.61768V12.513H23.0258V10.5646L23.8268 11.8641L24.6888 10.5646L24.7642 12.513H26.0789V8.61768H24.7337L23.911 9.90217L23.1463 8.61768H21.7416Z" fill="white"/>
<path d="M26.6042 8.61768V12.513H29.6964V11.2001L27.9537 11.1822L27.9348 8.61768H26.6042Z" fill="white"/>
<path d="M11.7814 13.9949L13.5952 34.2687L21.3237 36.6478L29.6965 34.2687L31.5002 13.9949H11.7814Z" fill="white"/>
<path d="M27.4821 20.5609L27.6664 18.134L15.4294 18.3239L16.168 25.4163H24.7091V28.8421C24.7091 28.8421 22.2553 29.9845 21.6125 29.6989C21.6125 29.6989 19.3067 29.3176 18.7103 28.8421L18.6145 26.9385L16.3058 26.8907L16.6294 30.6515C16.6294 30.6515 19.5505 31.6025 21.3222 32.078L26.6027 30.7457L27.2978 23.3213L18.2459 23.417L18.1008 20.6088L27.4821 20.5609Z" fill="#231F20"/>
</g>
<defs>
<clipPath id="clip0_231_19">
<rect width="43" height="43" fill="white"/>
</clipPath>
</defs>
</svg>
