<svg width="43" height="43" viewBox="0 0 43 43" fill="none" xmlns="http://www.w3.org/2000/svg">
<g clip-path="url(#clip0_231_113)">
<path d="M21.5014 42.9972C33.3763 42.9972 43.0028 33.3719 43.0028 21.4986C43.0028 9.62524 33.3763 0 21.5014 0C9.6265 0 0 9.62524 0 21.4986C0 33.3719 9.6265 42.9972 21.5014 42.9972Z" fill="#231F20"/>
<path d="M19.3266 8.44348H20.5689V12.9077H17.3483V11.6711L19.3986 11.6314L19.3266 8.44348Z" fill="white"/>
<path d="M25.1813 9.52966V8.44055H21.0089V11.3675H23.6817C23.7138 11.3668 23.7457 11.3726 23.7755 11.3847C23.8053 11.3967 23.8325 11.4148 23.8555 11.4378C23.8784 11.4608 23.8966 11.4882 23.9091 11.5185C23.9215 11.5488 23.9279 11.5814 23.9279 11.6143C23.9279 11.6143 23.9971 11.8582 23.7592 11.8412H21.0089V12.9076L25.1813 12.848V10.2075L22.4145 10.1224C22.4145 10.1224 22.1876 10.0402 22.2152 9.89838C22.2429 9.75656 22.4283 9.71685 22.4283 9.71685L25.173 9.67147L25.1813 9.52966Z" fill="white"/>
<path d="M11.7537 14.1244H30.9973L29.2957 34.1992L21.3741 36.6412L13.4526 34.3495L11.7537 14.1244Z" fill="white"/>
<path d="M17.8657 17.1082H20.2424V33.4902L13.8786 31.5842V29.0061L17.6305 30.2767C17.6305 30.2767 18.2531 30.3477 18.0787 29.7832L17.8657 17.1082Z" fill="#231F20"/>
<path d="M28.8779 19.6494V17.0968H22.2374V26.8761L25.8537 26.3826C25.9147 26.3712 25.9776 26.3778 26.0351 26.4017C26.0926 26.4256 26.1422 26.4658 26.1782 26.5176C26.2142 26.5694 26.2351 26.6306 26.2383 26.6941C26.2416 26.7576 26.2272 26.8207 26.1968 26.8761L25.8869 29.9137L22.2374 30.9121V33.4902L27.8154 31.9019L28.5043 23.8158L24.888 24.1703C24.888 24.1703 24.4066 24.5589 24.3706 23.674V20.038C24.3706 20.038 24.1991 19.5076 24.888 19.7203L28.8779 19.6494Z" fill="#231F20"/>
</g>
<defs>
<clipPath id="clip0_231_113">
<rect width="43" height="43" fill="white"/>
</clipPath>
</defs>
</svg>
