<svg width="43" height="43" viewBox="0 0 43 43" fill="none" xmlns="http://www.w3.org/2000/svg">
<path d="M21.5 43C33.3741 43 43 33.3741 43 21.5C43 9.62588 33.3741 0 21.5 0C9.62588 0 0 9.62588 0 21.5C0 33.3741 9.62588 43 21.5 43Z" fill="#231F20"/>
<path d="M13.6976 12.607L13.8174 8.34659C13.8174 8.34659 13.8783 6.47002 16.2774 6.00632C16.2774 6.00632 20.5312 4.48243 26.4309 6.17395C26.4309 6.17395 27.9678 6.53098 28.8735 8.75369V17.6794C28.8735 17.6794 28.4903 20.5095 25.4708 20.8099H16.8804C16.8804 20.8099 14.1374 21.0559 13.0119 24.1298V28.9736C13.0119 28.9736 8.4293 29.2218 8.23555 28.6166C8.23555 28.6166 5.71241 27.2168 5.60139 22.9912C5.60139 22.9912 5.18994 18.0516 6.80962 15.5546C7.29238 14.8654 7.9458 14.3132 8.70595 13.9522C9.46609 13.5912 10.3069 13.4338 11.1462 13.4952L21.2997 13.5496L21.217 12.5634L13.6976 12.607Z" fill="white"/>
<path d="M18.4021 9.25116C18.4021 8.49429 17.7885 7.88074 17.0317 7.88074C16.2748 7.88074 15.6613 8.49429 15.6613 9.25116C15.6613 10.008 16.2748 10.6216 17.0317 10.6216C17.7885 10.6216 18.4021 10.008 18.4021 9.25116Z" fill="#231F20"/>
<path d="M29.803 13.5757V17.6533C29.803 17.6533 29.5243 20.9187 25.7821 21.7591H17.0327C17.0327 21.7591 14.3224 21.5718 13.6671 25.2727V33.6411C13.6671 33.6411 13.8086 36.1838 19.3991 37.2462C22.0123 37.6765 24.6944 37.2205 27.0186 35.9509C27.5265 35.6944 27.9617 35.3144 28.2843 34.8457C28.6069 34.377 28.8065 33.8348 28.8647 33.2688V29.9881H21.2452V29.0302H33.6345C33.6345 29.0302 37.011 28.129 36.9631 21.5C36.9631 21.5 37.6162 16.3492 34.0046 13.7608L29.803 13.5757Z" fill="white"/>
<path d="M26.9642 33.3417C26.9642 32.5849 26.3507 31.9713 25.5938 31.9713C24.8369 31.9713 24.2234 32.5849 24.2234 33.3417C24.2234 34.0986 24.8369 34.7121 25.5938 34.7121C26.3507 34.7121 26.9642 34.0986 26.9642 33.3417Z" fill="#090506"/>
</svg>
