<svg width="43" height="43" viewBox="0 0 43 43" fill="none" xmlns="http://www.w3.org/2000/svg">
<g clip-path="url(#clip0_231_128)">
<path d="M35.9134 0H7.08658C3.17277 0 0 3.17277 0 7.08658V35.9134C0 39.8272 3.17277 43 7.08658 43H35.9134C39.8272 43 43 39.8272 43 35.9134V7.08658C43 3.17277 39.8272 0 35.9134 0Z" fill="#090505"/>
<path d="M5.31546 19.348C5.31546 19.348 9.20919 15.8 14.6509 15.0792C20.0926 14.3584 25.9294 14.6471 25.9294 14.6471L32.2923 15.8817C32.2923 15.8817 36.9914 17.5256 37.791 18.858C37.791 18.858 38.9905 20.1211 38.8566 21.2664C38.9352 21.9274 38.7697 22.5944 38.3912 23.142C37.7578 24.0813 36.3731 25.1136 36.3731 25.1136C36.3731 25.1136 33.6504 26.9607 31.6788 27.2172C29.7073 27.4736 24.9512 28.3568 21.1211 28.3929C21.1211 28.3929 12.6556 27.5154 10.3839 26.8088C10.3839 26.8088 6.57285 25.2019 5.85963 24.0376C5.85963 24.0376 4.69626 22.6862 4.69626 21.973C4.69626 21.973 4.6013 20.3177 4.95838 19.8333L5.31546 19.348Z" fill="white"/>
<path d="M14.6689 6.27652C14.6689 6.27652 16.5075 6.01441 18.5427 7.45888C18.5427 7.45888 21.0898 8.82074 23.9446 11.9822C23.9446 11.9822 26.7993 15.6661 27.2903 17.0156C27.2903 17.0156 30.391 22.1439 30.2989 22.5713C30.2989 22.5713 31.5269 26.1943 31.865 28.0671C31.865 28.0671 32.4177 31.7814 32.0492 33.0397C32.0492 33.0397 32.1442 34.9438 30.3303 36.3247C30.3303 36.3247 28.3957 38.0749 24.2826 35.1585L21.7346 32.9742L17.7526 28.3188C17.7526 28.3188 13.2843 21.2037 13.2843 20.0451C13.2843 20.0451 10.5416 13.0022 11.3754 9.80366C12.2093 6.60511 13.8788 6.43227 13.8788 6.43227L14.6689 6.27652Z" fill="white"/>
<path d="M28.0908 6.20996C28.0908 6.20996 26.0376 6.52241 22.7364 9.154L19.4125 12.7989C19.4125 12.7989 16.2501 17.0431 15.893 17.9158C15.893 17.9158 13.4105 22.0099 13.0392 23.4183L12.4646 25.0024L11.8226 27.5096C11.8226 27.5096 10.9214 31.0035 11.4674 33.6826C12.0135 36.3616 14.118 36.7149 14.118 36.7149C14.118 36.7149 15.648 37.261 17.7791 36.0045C19.9102 34.7481 23.0318 31.6844 23.0318 31.6844L27.2 26.1392L28.8695 23.1591C28.8695 23.1591 31.4574 17.8408 31.8212 15.3222C32.1849 12.8036 32.5087 10.7039 32.1061 8.96501C31.7034 7.22613 30.0035 6.41794 30.0035 6.41794L28.9056 6.20996H28.0908Z" fill="white"/>
<path d="M14.0792 8.2044C14.0792 8.2044 14.5303 7.65358 16.1951 8.2044C16.1951 8.2044 18.5693 9.18448 20.2721 10.8863L20.632 11.2434L18.0137 14.5911C18.0137 14.5911 13.7867 15.1333 13.6186 15.3204C13.6186 15.3204 13.1134 14.535 12.9823 11.7667C12.9823 11.7667 13.0383 9.33548 13.4315 8.86729C13.6244 8.62494 13.8414 8.40284 14.0792 8.2044Z" fill="#231F20"/>
<path d="M20.0907 14.3584L21.8343 12.3469L23.5552 14.3584H20.0907Z" fill="#231F20"/>
<path d="M14.1067 16.9254L14.9795 19.3481L16.8038 16.4895L14.1067 16.9254Z" fill="#231F20"/>
<path d="M27.0187 16.4895L28.7633 19.3481L29.6835 16.9738L27.0187 16.4895Z" fill="#231F20"/>
<path d="M20.0907 28.4612H23.5552L21.8229 30.4584L20.0907 28.4612Z" fill="#231F20"/>
<path d="M28.8088 23.5836L29.6835 25.9426L27.0187 26.4203L28.8088 23.5836Z" fill="#231F20"/>
<path d="M14.8237 23.5836L16.6186 26.4203L13.9092 25.9369L14.8237 23.5836Z" fill="#231F20"/>
<path d="M6.35908 21.3613C6.35908 21.3613 6.10171 20.688 7.42368 19.5056C7.42368 19.5056 9.48071 17.9216 11.834 17.2919L12.325 17.1599L13.9518 21.1486C13.9518 21.1486 12.3032 25.124 12.383 25.3652C12.383 25.3652 11.438 25.4108 8.93748 24.1306C8.93748 24.1306 6.82728 22.8523 6.6136 22.2721C6.49774 21.978 6.41245 21.6728 6.35908 21.3613Z" fill="#231F20"/>
<path d="M14.1218 34.9258C14.1218 34.9258 13.3887 34.8147 13.0373 33.0464C13.0373 33.0464 12.7144 30.4195 13.3934 28.013L13.5359 27.5106L17.9301 28.0804C17.9301 28.0804 20.5892 31.5515 20.8485 31.6019C20.8485 31.6019 20.3917 32.4642 17.9339 34.0369C17.9339 34.0369 15.6888 35.2658 15.0611 35.1632C14.7407 35.1162 14.426 35.0367 14.1218 34.9258Z" fill="#231F20"/>
<path d="M29.6455 34.9723C29.6455 34.9723 29.1868 35.5611 27.504 34.9628C27.504 34.9628 25.1022 33.901 23.3871 32.0672L23.0281 31.6873L25.6948 28.1051C25.6948 28.1051 29.9769 27.541 30.1488 27.3406C30.1488 27.3406 30.656 28.1858 30.7766 31.1574C30.7766 31.1574 30.7092 33.7671 30.3093 34.2667C30.1125 34.5237 29.8901 34.7602 29.6455 34.9723Z" fill="#231F20"/>
<path d="M29.8287 8.16064C29.8287 8.16064 30.5315 8.30309 30.8117 10.0391C30.8117 10.0391 31.0367 12.608 30.3017 14.9177L30.1478 15.4001L25.9293 14.647C25.9293 14.647 23.481 11.1484 23.2332 11.0876C23.2332 11.0876 23.7023 10.2708 26.1231 8.85486C26.1231 8.85486 28.3292 7.76367 28.9313 7.89283C29.2387 7.9515 29.5394 8.04123 29.8287 8.16064Z" fill="#231F20"/>
<path d="M37.2515 21.3965C37.2515 21.3965 37.5118 22.0613 36.2069 23.238C36.2069 23.238 34.166 24.8145 31.825 25.4431L31.3359 25.5742L29.692 21.6178C29.692 21.6178 31.3122 17.6661 31.2315 17.4259C31.2315 17.4259 32.1726 17.3793 34.6712 18.6529C34.6712 18.6529 36.7814 19.9198 36.997 20.4962C37.1123 20.7869 37.1976 21.0885 37.2515 21.3965Z" fill="#231F20"/>
<path d="M19.0223 16.1675H25.1193L28.0918 21.5L24.9749 26.6967L19.0223 26.8087L15.9614 21.4876L19.0223 16.1675Z" fill="#231F20"/>
<path d="M21.9112 24.7081C23.6829 24.7081 25.1192 23.2718 25.1192 21.5C25.1192 19.7283 23.6829 18.292 21.9112 18.292C20.1394 18.292 18.7031 19.7283 18.7031 21.5C18.7031 23.2718 20.1394 24.7081 21.9112 24.7081Z" fill="white"/>
</g>
<defs>
<clipPath id="clip0_231_128">
<rect width="43" height="43" fill="white"/>
</clipPath>
</defs>
</svg>
