<svg width="43" height="43" viewBox="0 0 43 43" fill="none" xmlns="http://www.w3.org/2000/svg">
<g clip-path="url(#clip0_231_124)">
<path d="M36.7455 0H6.25449C2.80023 0 0 2.80023 0 6.25449V36.7455C0 40.1998 2.80023 43 6.25449 43H36.7455C40.1998 43 43 40.1998 43 36.7455V6.25449C43 2.80023 40.1998 0 36.7455 0Z" fill="#231F20"/>
<path d="M6.20752 15.3989V11.8905H21.4751V15.3989H15.8294L15.864 31.3424H11.8695L11.7995 15.3989H6.20752Z" fill="white"/>
<path d="M32.3281 16.8113L35.2238 14.9243C35.2238 14.9243 35.6141 14.8591 34.7684 13.9473C34.7684 13.9473 34.2477 12.1255 29.8543 11.5722C25.4609 11.019 23.9316 15.2158 23.9316 15.2158C23.9316 15.2158 23.3783 17.5592 24.3228 19.6092C25.2673 21.6592 29.5427 23.4493 29.5427 23.4493L31.6119 24.4906C31.8454 24.6107 32.0415 24.7924 32.1791 25.016C32.3167 25.2396 32.3905 25.4966 32.3924 25.7592C32.4179 26.3124 32.2448 26.8565 31.9043 27.2933C31.9043 27.2933 31.0586 28.0086 29.9195 28.0412C28.7804 28.0738 27.6413 27.4544 27.6413 27.4544C27.6413 27.4544 25.9499 26.0555 25.7543 25.5674L22.5327 27.4851C22.5327 27.4851 24.2586 31.0328 28.1898 31.5534C32.121 32.0741 33.8853 30.6742 33.8853 30.6742C33.8853 30.6742 36.3255 29.3078 36.4559 26.9347C36.5863 24.5616 35.9679 23.3554 35.9679 23.3554C35.3547 22.1666 34.374 21.2075 33.1719 20.6208C31.1871 19.6773 29.513 18.9284 29.5034 18.9284C29.4938 18.9284 28.1927 18.2122 28.0306 17.8545C27.8686 17.4969 27.8024 16.5237 27.8024 16.5237C27.8024 16.5237 27.9942 15.515 28.8763 15.3194C29.7584 15.1238 30.8285 15.5111 30.8285 15.5111C30.8285 15.5111 31.5448 15.934 31.7078 16.2916L32.3281 16.8113Z" fill="white"/>
</g>
<defs>
<clipPath id="clip0_231_124">
<rect width="43" height="43" fill="white"/>
</clipPath>
</defs>
</svg>
